HIERARCHY
ROOT HipCenter
{
    OFFSET 0.0 0.0 -0.0
    CHANNELS 6 Xposition Yposition Zposition Zrotation Xrotation Yrotation
    JOINT Spine
    {
        OFFSET 0.0 11.60804271697998 0.0
        CHANNELS 3 Zrotation Xrotation Yrotation
        JOINT ShoulderCenter
        {
            OFFSET 0.0 34.1893310546875 0.0
            CHANNELS 3 Zrotation Xrotation Yrotation
            JOINT LeftShoulder
            {
                OFFSET 21.03016471862793 0.0 0.0
                CHANNELS 3 Zrotation Xrotation Yrotation
                JOINT LeftElbow
                {
                    OFFSET 28.253284454345703 0.0 0.0
                    CHANNELS 3 Zrotation Xrotation Yrotation
                    JOINT LeftWrist
                    {
                        OFFSET 30.587841033935547 0.0 0.0
                        CHANNELS 3 Zrotation Xrotation Yrotation
                        JOINT LeftHand
                        {
                            OFFSET 3.9561049938201904 0.0 0.0
                            CHANNELS 3 Zrotation Xrotation Yrotation
                            End Site
                            {
                                OFFSET 1.582442045211792 0.0 0.0
                            }
                        }
                    }
                }
            }
            JOINT RightShoulder
            {
                OFFSET -21.03016471862793 0.0 0.0
                CHANNELS 3 Zrotation Xrotation Yrotation
                JOINT RightElbow
                {
                    OFFSET -28.253284454345703 0.0 0.0
                    CHANNELS 3 Zrotation Xrotation Yrotation
                    JOINT RightWrist
                    {
                        OFFSET -30.587841033935547 0.0 0.0
                        CHANNELS 3 Zrotation Xrotation Yrotation
                        JOINT RightHand
                        {
                            OFFSET -3.9561049938201904 0.0 0.0
                            CHANNELS 3 Zrotation Xrotation Yrotation
                            End Site
                            {
                                OFFSET -1.582442045211792 0.0 0.0
                            }
                        }
                    }
                }
            }
            End Site
            {
                OFFSET 0.0 13.675732612609863 0.0
            }
        }
    }
    JOINT LeftHip
    {
        OFFSET 16.196035385131836 0.0 0.0
        CHANNELS 3 Zrotation Xrotation Yrotation
        JOINT LeftKnee
        {
            OFFSET 0.0 -39.73896789550781 0.0
            CHANNELS 3 Zrotation Xrotation Yrotation
            JOINT LeftAnkle
            {
                OFFSET 0.0 -45.00599670410156 0.0
                CHANNELS 3 Zrotation Xrotation Yrotation
                JOINT LeftFoot
                {
                    OFFSET 0.0 -10.236822128295898 0.0
                    CHANNELS 3 Zrotation Xrotation Yrotation
                    End Site
                    {
                        OFFSET 0.0 0.0 4.094728469848633
                    }
                }
            }
        }
    }
    JOINT RightHip
    {
        OFFSET -16.196035385131836 0.0 0.0
        CHANNELS 3 Zrotation Xrotation Yrotation
        JOINT RightKnee
        {
            OFFSET 0.0 -39.73896789550781 0.0
            CHANNELS 3 Zrotation Xrotation Yrotation
            JOINT RightAnkle
            {
                OFFSET 0.0 -45.00599670410156 0.0
                CHANNELS 3 Zrotation Xrotation Yrotation
                JOINT RightFoot
                {
                    OFFSET 0.0 -10.236822128295898 0.0
                    CHANNELS 3 Zrotation Xrotation Yrotation
                    End Site
                    {
                        OFFSET 0.0 0.0 4.094728469848633
                    }
                }
            }
        }
    }
}
MOTION
Frames: 7
Frame Time: 0.03333333333333333
-59.20000076293945 2.0999999046325684 -91.9000015258789 -1.974941195214302 -4.033464350709496e-09 94.62579598056838 -0.4789976790978269 -1.775024279087474 0.04993933781346581 4.1535083020892615e-08 -1.8306166127032666e-08 -2.461822103413869 91.8655639662761 12.550332673852848 173.22049830832285 2.1226303888852387e-06 1.8550459686507796e-06 25.219705100445193 -7.883198414190461e-05 -86.15791709973401 32.856696890346555 6.3611093629270335e-15 -3.1805546814635168e-15 3.1805546814635168e-15 -96.58347006765754 5.686593302717806 -169.8622184427026 2.829868138564052e-06 -1.978981110157155e-06 -29.55632416054986 -1.8288611506857587e-05 -81.141248017268 -24.05122995135662 9.54166404439055e-15 0.0 0.0 4.674494068477333 -6.842801096888185 -30.647732024919357 -5.210434653683321 19.47891414857285 -18.62031159446178 104.37710387613244 -42.60053758116791 155.82634960739233 4.770832022195275e-15 -3.1805546814635168e-15 -3.1805546814635168e-15 -4.670970438527701 5.283553314678868 36.21181922304879 0.08344754763045553 -0.12532482308350612 -0.10044979784807484 -82.95287590200492 -33.17259730339008 -138.4230871297618 -6.3611093629270335e-15 4.770832022195275e-15 2.648343778830095e-31
-59.20000076293945 2.0999999046325684 -92.0 -2.4681177822066216 -3.834573253806998e-08 94.8823294045667 -0.5433522614896197 -2.4306561066342707 0.06779445773329121 -1.2403471747990065e-08 -7.318943340603573e-09 -2.3282102110910157 91.9226260875061 12.217759735258342 173.0364577452425 -1.701197488542005e-06 1.166844817696391e-06 25.016235128510456 -6.035792572219539e-05 -85.31768680345704 33.90618235663837 0.0 0.0 -1.5902773407317584e-15 -96.82475357989112 6.076390230513226 -169.24824551250828 -1.4647906879879722e-06 -2.1799193075367118e-06 -29.574954416971973 -3.829449452801896e-05 -80.97003249507685 -21.850408703649325 -1.5902773407317582e-15 3.1805546814635164e-15 4.4139062980501586e-32 4.466731766808571 -7.343034227603804 -30.55839794035672 -4.9729527423032645 19.56948769390471 -18.62864460908221 104.71378935797438 -43.45771373558763 155.6501387202894 -1.5902773407317584e-15 0.0 0.0 -4.833882744874538 4.826214642975404 36.631485063787274 0.2652815796497958 0.04534373900800084 0.036211644796964974 -83.26007437308267 -32.3705770873252 -139.26432192793493 -1.2722218725854065e-14 0.0 0.0
-59.10000228881836 2.0999999046325684 -92.0999984741211 -2.468117750107723 -1.0567255727984963e-07 94.89416739208184 -0.5438548064166218 -2.4305439063704353 0.056092328806271914 1.0876393894212129e-08 -1.5560547361141324e-09 -2.467121059764055 91.83499204027702 13.758415533335128 173.19333047760784 2.289092892376567e-07 -4.160213244187601e-06 24.965123005026978 2.2246276392169914e-05 -84.04416627691893 33.54586726131297 0.0 0.0 1.5902773407317584e-15 -96.98483490799872 6.650904587956118 -169.2127718696987 -4.543062078685536e-06 -2.0848670439505236e-06 -29.193714841949234 -9.905659717770717e-06 -83.33460868101847 -22.894683208414186 5.565970692561154e-15 3.1805546814635168e-15 -1.5448672043175555e-31 4.465210804888018 -7.343956877399508 -30.570283157397032 -5.1556115169618515 19.62682914839933 -18.566889427277605 104.89479851967424 -43.45833812281224 155.64957963162652 1.5902773407317582e-15 3.1805546814635164e-15 -4.4139062980501586e-32 -4.831681074009108 4.993436057139421 36.79440828411949 -0.01275343687586619 -0.09814880841376396 -0.0796248658470382 -83.08018684351725 -32.31090784819088 -139.6006226362045 -6.3611093629270335e-15 4.770832022195275e-15 2.648343778830095e-31
-58.999996185302734 2.0999999046325684 -92.19999694824219 -2.4681178663403824 -1.764006381754249e-07 94.61954819424385 -0.3655500075818144 -2.4466189046972002 0.06360183126737926 4.457497623771802e-09 2.19004497093533e-09 -2.192812823426068 91.87275813494058 13.73959094847459 173.1955497142715 -1.9534860065132595e-06 2.935493308229941e-06 25.012875923647236 3.7604160133347765e-05 -84.2546993453714 33.35458653025745 6.361109362927032e-15 -8.827812596100317e-32 -1.590277340731758e-15 -97.42285918041482 7.0876376314689 -169.38885070984128 1.977321597516713e-06 -4.98416897723456e-07 -28.809283420920213 -2.3701955833368755e-05 -85.1335388830202 -24.723700425033417 8.827812596100317e-32 -6.361109362927033e-15 1.5902773407317582e-15 4.360361441785041 -7.312693873006807 -30.23842231790156 -5.066412503456104 19.805007170236458 -18.695770656941487 105.04380046008018 -43.36158622236348 155.7371504235866 1.5902773407317582e-15 3.1805546814635164e-15 -4.4139062980501586e-32 -4.868073653703756 4.822832171342909 36.64646324610763 0.16872678864248586 0.10615810916820516 0.08641573600191561 -82.57080195843507 -32.084567293416505 -139.32239774393884 0.0 0.0 0.0
-58.999996185302734 2.0999999046325684 -92.19999694824219 -2.9609287635349086 1.0354533969171654e-07 94.58142690561131 -0.4034401455344092 -2.938087148529436 0.07599663663915623 -4.397418801624523e-09 5.1443163441017245e-09 -1.8927741017199344 92.2403443260718 13.19568331517956 173.25733553949107 -3.1197688691958673e-06 4.721685052570455e-07 25.36328838029018 6.188286753969929e-05 -86.65574478534565 31.21824274222202 0.0 0.0 0.0 -97.84539538151485 7.344305249536281 -169.14423486410715 3.043214506269074e-06 -1.3147812451309802e-06 -29.219442941958572 -2.835968165417903e-05 -82.32625201288825 -24.145471411436294 0.0 0.0 3.180554681463516e-15 4.341476737703025 -7.660590680555648 -30.561292431298966 -5.266325814911052 19.59078516690368 -18.163813837034375 104.33556152897387 -43.64921625838232 154.66281882233548 4.770832022195277e-15 -3.1805546814635176e-15 -3.1805546814635176e-15 -4.8947508647998434 4.477561873739112 37.065284880516245 -0.10694357271316386 -0.015468597513079805 -0.012597741158689734 -82.9119959552593 -32.09847601346281 -139.68602273038636 0.0 -1.5902773407317584e-15 0.0
-58.89999771118164 2.0 -92.29999542236328 -2.4681177581346447 -1.534681324413643e-08 94.85897730707728 -0.19501356096571626 -2.292803902199047 0.07749825697221596 5.729885815013021e-09 1.0741546137589458e-08 -2.574748147306802 92.50088204124197 13.091177434110772 172.99323917629948 -2.3867744467587776e-06 -1.10372475723223e-06 26.153033454420154 -8.296503963325476e-06 -84.27421692378525 32.29668491021395 -6.361109362927033e-15 3.1805546814635168e-15 -4.770832022195274e-15 -98.52785033026642 7.750121189382131 -169.5320121317839 -8.566307224247003e-07 1.03289987008262e-06 -29.674486831504996 -8.347232136054774e-05 -84.07805494620072 -21.277936553776673 -7.951386703658794e-16 0.0 0.0 4.586929297772974 -7.6292143651920155 -30.29146239073338 -5.872470003794664 20.048934277900308 -18.635911729775483 103.9915422006443 -43.78992262308086 154.31260179044887 7.951386703658793e-15 3.1805546814635176e-15 -2.2069531490250793e-31 -4.834744229779124 4.9904713025212315 36.46878585226033 0.0707093743620438 -0.004740462114951377 -0.003778072598227542 -82.56856875319444 -32.11188582546334 -138.64889988202677 -6.3611093629270335e-15 1.5902773407317582e-15 3.1805546814635168e-15
-58.89999771118164 2.0 -92.29999542236328 -2.9609285616371452 2.4774329765209935e-08 94.87798127979165 -0.05692015958063818 -2.631531612984987 0.08502559434452858 2.6572561320625643e-08 2.0626318031458712e-08 -2.45178260026887 92.79447127987575 13.26504865659094 172.96408197400606 2.588192534578989e-06 -3.130653344775877e-06 26.9768235463421 9.252829909570107e-05 -85.24396326557981 31.663398214227925 0.0 0.0 3.1805546814635176e-15 -99.2809159978749 7.913936684555889 -170.01864820949135 -2.2114844587963453e-06 -2.404443258171476e-06 -29.68882912311959 1.5441574512299947e-05 -80.57075887374153 -22.551564297165253 2.3854160110976376e-15 0.0 0.0 4.67668161989757 -8.269085187959226 -30.701215495764668 -6.406880624258635 20.12076926961391 -18.267824886113832 103.3866593706636 -43.796354120778176 153.25197080892022 1.5902773407317584e-15 0.0 0.0 -4.871546462621201 4.5028125207478045 37.03086628100242 -0.023161419172896453 0.07756253162157181 0.06195463030393051 -82.58021703898217 -31.4399019611188 -139.26024078492136 0.0 0.0 -6.3611093629270335e-15
